<svg width="21" height="21" viewBox="0 0 21 21" fill="none" xmlns="http://www.w3.org/2000/svg">
<path d="M14.2344 10.5L19.7031 5.03125C20.4141 4.375 20.4141 3.28125 19.7031 2.625L18.5 1.42188C17.8438 0.710938 16.75 0.710938 16.0938 1.42188L10.625 6.89062L5.10156 1.42188C4.44531 0.710938 3.35156 0.710938 2.69531 1.42188L1.49219 2.625C0.78125 3.28125 0.78125 4.375 1.49219 5.03125L6.96094 10.5L1.49219 16.0234C0.78125 16.6797 0.78125 17.7734 1.49219 18.4297L2.69531 19.6328C3.35156 20.3438 4.44531 20.3438 5.10156 19.6328L10.625 14.1641L16.0938 19.6328C16.75 20.3438 17.8438 20.3438 18.5 19.6328L19.7031 18.4297C20.4141 17.7734 20.4141 16.6797 19.7031 16.0234L14.2344 10.5Z" fill="#333333"/>
</svg>
